HIERARCHY
ROOT Hips
{
	OFFSET -3.958830 18.904000 13.208200
	CHANNELS 6 Xposition Yposition Zposition Zrotation Yrotation Xrotation 
	JOINT LHipJoint
	{
		OFFSET 0.000000 0.000000 0.000000
		CHANNELS 3 Zrotation Yrotation Xrotation
		JOINT LeftUpLeg
		{
			OFFSET 1.800000 -1.400000 0.085000
			CHANNELS 3 Zrotation Yrotation Xrotation
			JOINT LeftLeg
			{
				OFFSET 2.215000 -6.000000 0.000000
				CHANNELS 3 Zrotation Yrotation Xrotation
				JOINT LeftFoot
				{
					OFFSET 2.500000 -6.900000 0.000000
					CHANNELS 3 Zrotation Yrotation Xrotation
					JOINT LeftToeBase
					{
						OFFSET 0.200000 -0.500000 1.950000
						CHANNELS 3 Zrotation Yrotation Xrotation
						End Site
						{
							OFFSET 0.000000 0.000000 0.000000
						}
					}
				}
			}
		}
	}
	JOINT RHipJoint
	{
		OFFSET 0.000000 0.000000 0.000000
		CHANNELS 3 Zrotation Yrotation Xrotation
		JOINT RightUpLeg
		{
			OFFSET -1.800000 -1.400000 0.085000
			CHANNELS 3 Zrotation Yrotation Xrotation
			JOINT RightLeg
			{
				OFFSET -2.215000 -6.000000 0.000000
				CHANNELS 3 Zrotation Yrotation Xrotation
				JOINT RightFoot
				{
					OFFSET -2.500000 -6.900000 0.000000
					CHANNELS 3 Zrotation Yrotation Xrotation
					JOINT RightToeBase
					{
						OFFSET -0.200000 -0.500000 1.950000
						CHANNELS 3 Zrotation Yrotation Xrotation
						End Site
						{
							OFFSET 0.000000 0.000000 0.000000
						}
					}
				}
			}
		}
	}
	JOINT LowerBack
	{
		OFFSET 0.000000 0.000000 0.000000
		CHANNELS 3 Zrotation Yrotation Xrotation
		JOINT Spine
		{
			OFFSET -0.087000 1.940000 -0.288900
			CHANNELS 3 Zrotation Yrotation Xrotation
			JOINT Spine1
			{
				OFFSET 0.000000 1.950000 0.060000
				CHANNELS 3 Zrotation Yrotation Xrotation
				JOINT Neck
				{
					OFFSET 0.000000 0.000000 0.000000
					CHANNELS 3 Zrotation Yrotation Xrotation
					JOINT Neck1
					{
						OFFSET 0.000000 1.600000 0.340000
						CHANNELS 3 Zrotation Yrotation Xrotation
						JOINT Head
						{
							OFFSET 0.000000 1.667000 -0.240000
							CHANNELS 3 Zrotation Yrotation Xrotation
							End Site
							{
								OFFSET 0.000000 0.000000 0.000000
							}
						}
					}
				}
				JOINT LeftShoulder
				{
					OFFSET 0.000000 0.000000 0.000000
					CHANNELS 3 Zrotation Yrotation Xrotation
					JOINT LeftArm
					{
						OFFSET 2.700000 1.550000 -0.730000
						CHANNELS 3 Zrotation Yrotation Xrotation
						JOINT LeftForeArm
						{
							OFFSET 5.450000 0.000000 0.000000
							CHANNELS 3 Zrotation Yrotation Xrotation
							JOINT LeftHand
							{
								OFFSET 3.450000 0.000000 0.000000
								CHANNELS 3 Zrotation Yrotation Xrotation
								JOINT LeftHandIndex1
								{
									OFFSET 0.750000 0.000000 0.000000
									CHANNELS 3 Zrotation Yrotation Xrotation
									End Site
									{
										OFFSET 0.000000 0.000000 0.000000
									}
								}
							}
						}
					}
				}
				JOINT RightShoulder
				{
					OFFSET 0.000000 0.000000 0.000000
					CHANNELS 3 Zrotation Yrotation Xrotation
					JOINT RightArm
					{
						OFFSET -2.700000 1.550000 -0.730000
						CHANNELS 3 Zrotation Yrotation Xrotation
						JOINT RightForeArm
						{
							OFFSET -5.450000 0.000000 0.000000
							CHANNELS 3 Zrotation Yrotation Xrotation
							JOINT RightHand
							{
								OFFSET -3.450000 0.000000 0.000000
								CHANNELS 3 Zrotation Yrotation Xrotation
								JOINT RightHandIndex1
								{
									OFFSET -0.750000 0.000000 0.000000
									CHANNELS 3 Zrotation Yrotation Xrotation
									End Site
									{
										OFFSET 0.000000 0.000000 0.000000
									}
								}
							}
						}
					}
				}
			}
		}
	}
}
MOTION
Frames: 13
Frame Time: 0.016667
-1.353890 16.690220 -5.578700 0.248731 -13.200032 -10.582166 -15.688231 12.052035 4.237131 -12.387553 -7.248458 -1.814065 -29.186679 20.019935 39.235041 1.259479 11.548841 1.009324 0.052550 -0.031880 -0.318200 18.243855 -7.826338 4.157958 4.102763 10.633312 -40.038647 16.618856 -16.666383 52.041986 -1.912469 -9.245997 1.010931 -0.084850 0.916400 0.952770 -2.899818 -4.534589 -9.046855 5.390676 -6.123917 52.030504 0.167452 -5.038494 1.010917 0.233041 -2.376936 -7.108625 -5.121961 4.490205 23.512332 -5.249930 4.546900 -32.749050 -3.043598 -1.257526 0.511724 -16.761011 -13.349520 -7.235255 92.444994 -42.024154 -47.259992 -4.064742 2.432721 0.937940 0.336220 0.431140 0.469160 3.066360 1.524600 2.283204 46.465775 6.899390 -14.740069 -75.679328 47.119369 -34.131182 1.503741 -0.890223 -0.246840 0.505010 0.382270 0.239880 
-1.333060 16.588950 -5.533910 -0.061634 -11.962396 -10.980067 -15.692446 12.003894 4.237839 -12.664148 -7.625626 -1.006076 -28.275668 20.352778 41.170989 1.380341 11.803713 0.941426 0.020620 -0.083350 -0.335500 18.253645 -7.742679 4.220299 3.341943 10.631330 -41.284054 17.327329 -18.021967 54.289750 -2.026066 -9.886486 0.820702 -0.128700 0.907170 0.964590 -2.913006 -4.584736 -9.100143 6.094754 -7.234540 53.098451 -0.054324 -5.950231 0.398004 0.576165 -2.430340 -7.680909 -5.146401 4.428806 23.439992 -5.901630 4.654430 -30.215700 -2.915674 -1.932123 1.100777 -16.013051 -10.481739 -8.018016 93.846080 -41.241158 -47.557920 -4.073301 2.529939 0.893540 0.347170 0.402720 0.455980 2.281780 2.089362 2.751132 46.995406 6.670276 -14.839684 -79.308538 45.602887 -36.010162 1.577693 -0.995781 -0.221770 0.431590 0.382650 0.245490 
-1.321380 16.460050 -5.448080 -0.052489 -10.870642 -12.125076 -15.759742 12.100278 4.213628 -13.380354 -7.272748 1.309028 -26.787423 20.300753 42.440980 1.424580 11.931928 0.914025 0.018520 -0.096920 -0.329860 18.206460 -7.561903 4.270755 2.109097 10.673050 -41.940933 18.251217 -19.675262 57.165218 -2.210629 -10.663330 0.605181 -0.139920 0.893940 0.958840 -2.749569 -5.012910 -9.145963 5.847496 -7.199129 55.184162 0.923723 -6.143948 -0.184563 0.643379 -2.369929 -7.769406 -5.044389 3.845907 23.204693 -5.723960 4.055330 -30.529250 -3.807571 -2.815067 1.055525 -12.899923 -8.619357 -8.881776 93.981862 -38.778676 -45.073740 -4.074452 2.595251 0.904990 0.330990 0.402730 0.451820 3.062000 3.088398 3.058861 45.008559 5.626183 -15.427402 -85.142183 41.868447 -37.900944 1.663304 -1.147433 -0.224460 0.420690 0.377310 0.241500 
-1.299930 16.371120 -5.341830 -0.031633 -11.138665 -13.647335 -15.805202 12.195814 4.206528 -13.949423 -6.433501 3.845433 -26.336891 20.228653 42.047283 1.490519 11.840707 0.962371 0.018840 -0.095840 -0.306840 18.165443 -7.480980 4.275930 1.239261 10.690631 -41.158027 19.312247 -21.144686 59.235281 -2.362206 -11.249269 0.481912 -0.160290 0.832420 0.899240 -2.626796 -5.269815 -9.198434 5.838623 -6.800894 56.524425 1.209457 -6.000679 0.841109 0.896165 -2.237121 -8.784574 -5.041400 2.610151 24.791753 -5.512630 3.171430 -30.212670 -4.606916 -5.926604 1.921009 -10.135531 -5.446294 -10.606637 93.156043 -37.707787 -43.724211 -3.990254 2.608826 0.913770 0.278620 0.415980 0.451860 3.211459 6.470932 4.421569 44.688692 4.024276 -17.672173 -90.058419 38.045542 -40.034244 1.771922 -1.287245 -0.224540 0.400700 0.320230 0.238140 
-1.266880 16.345400 -5.201970 -0.192345 -12.766672 -14.583649 -15.817204 12.311736 4.164112 -14.184526 -5.032308 5.953515 -25.765974 19.880234 40.673798 1.494867 11.640721 1.025707 -0.008820 -0.151530 -0.321020 18.147114 -7.452874 4.283163 0.654570 11.081580 -39.361816 20.672885 -22.250461 59.906192 -2.481683 -11.573085 0.392565 -0.221100 0.808460 0.922200 -2.586047 -5.433048 -9.208699 6.576879 -6.630878 56.892292 0.670109 -5.774222 1.740302 1.406436 -3.003867 -9.511010 -6.612135 3.245677 26.330687 -5.612230 3.073270 -30.850760 -5.297557 -7.424793 2.726377 -10.598567 -3.386204 -11.531740 93.557011 -38.597982 -45.505595 -3.965757 2.606665 0.939650 0.239520 0.437070 0.434490 2.833387 8.728984 5.160953 45.118500 3.932390 -19.031892 -93.292736 36.864672 -42.445937 1.811466 -1.308267 -0.197200 0.371390 0.346640 0.240800 
-1.250740 16.372830 -5.049680 0.353909 -15.627493 -14.788953 -15.797874 12.340236 4.146219 -14.887518 -3.377691 7.083392 -25.734658 19.536381 38.534221 1.507368 11.289941 1.138814 -0.040200 -0.164190 -0.390120 18.157842 -7.495585 4.315757 0.217768 11.809038 -37.727251 21.350319 -22.361473 59.905357 -2.516057 -11.611415 0.420350 -0.267270 0.805950 0.918620 -2.632010 -5.315111 -9.230517 6.706913 -5.623374 55.636081 0.137125 -4.963385 2.710597 1.474437 -3.986438 -10.525911 -8.833604 3.952655 28.684106 -4.817240 2.710840 -30.557320 -5.754222 -8.959734 3.865268 -13.118397 -1.982664 -12.239150 94.113377 -40.670132 -48.778242 -3.909192 2.558625 0.938150 0.212430 0.455820 0.452080 3.143852 11.405770 6.100936 46.262150 3.889888 -20.272964 -95.110391 37.035784 -45.201039 1.832918 -1.262619 -0.162620 0.363560 0.353920 0.280710 
-1.232780 16.453290 -4.895270 -0.256988 -17.689566 -13.969051 -15.755061 12.420909 4.103320 -15.027583 -2.176186 7.629052 -24.107414 18.519297 37.070379 1.445187 10.816687 1.289195 -0.056230 -0.165310 -0.423460 18.172494 -7.611624 4.319795 0.268059 12.029574 -36.017208 22.480538 -22.315471 58.204209 -2.468665 -11.372674 0.523021 -0.283500 0.794070 0.863930 -2.705494 -5.199987 -9.205961 8.364102 -5.617609 53.002837 -0.205179 -4.262949 3.983774 1.595281 -5.284763 -11.483219 -11.943864 3.710183 31.222944 -3.808170 1.180170 -28.987990 -6.222137 -9.890617 4.946018 -18.235039 -2.985766 -12.215826 95.474925 -43.613714 -54.069995 -3.828961 2.441489 0.928700 0.181020 0.451770 0.463810 3.393898 13.633093 6.964974 46.912968 3.818123 -21.281541 -95.917112 37.937207 -47.918476 1.855239 -1.192452 -0.159090 0.382270 0.337300 0.303220 
-1.232690 16.578820 -4.732600 -1.409411 -19.251885 -12.608156 -15.683983 12.513306 4.037381 -14.354861 -1.270785 7.803960 -22.443632 17.623021 35.902751 1.318280 10.484920 1.428842 -0.131090 -0.269920 -0.470870 18.204042 -7.815225 4.299001 1.342126 12.199147 -33.894781 22.353083 -21.455096 56.137277 -2.346268 -10.889740 0.703700 -0.325440 0.862000 0.805040 -2.835694 -4.965759 -9.142245 10.585170 -5.836266 49.852380 -0.848137 -3.399356 4.546579 1.782820 -5.926700 -12.200597 -13.895915 3.963979 33.559901 -2.737300 0.378920 -27.036340 -6.592893 -9.654730 5.674695 -24.169976 -4.657304 -11.161799 97.390514 -48.769573 -62.014126 -3.813916 2.148445 0.965540 0.191400 0.410310 0.464800 3.427451 14.028488 7.514302 48.956459 3.493351 -21.587515 -95.038958 42.084951 -51.433344 1.798955 -0.932275 -0.236100 0.471460 0.379450 0.293020 
-1.246910 16.731500 -4.568590 -2.780889 -20.059619 -10.883024 -15.554211 12.535469 3.954225 -13.278163 -0.916168 7.343761 -20.375092 16.897453 36.049742 1.292222 10.228715 1.510863 -0.186720 -0.341000 -0.509050 18.280763 -8.150062 4.266051 2.799962 12.041777 -31.741602 21.713842 -20.196740 53.546542 -2.172716 -10.273319 0.888781 -0.380370 0.886730 0.800760 -3.119259 -4.414706 -9.042131 13.426788 -6.523478 46.448196 -2.239119 -2.932961 4.294631 1.830113 -5.766850 -12.832659 -14.037697 4.476623 35.523982 -2.221100 0.642500 -22.500850 -5.803928 -8.406590 6.232173 -29.664122 -5.420529 -9.712787 96.532111 -56.110147 -68.204182 -3.792457 1.823814 0.918700 0.217580 0.375800 0.453120 2.519918 12.554392 7.798884 53.371160 3.307244 -21.111835 -93.474436 49.013510 -55.955410 1.745688 -0.570476 -0.221590 0.440070 0.400540 0.303280 
-1.283020 16.930840 -4.397390 -2.987963 -20.454253 -9.854314 -15.527340 12.802580 3.955586 -12.820762 -0.634387 6.956634 -17.655182 16.024808 36.954457 1.279426 9.975856 1.578837 -0.204260 -0.356570 -0.525750 18.252599 -8.392180 4.062598 3.897898 10.973326 -28.671772 19.557263 -17.996741 50.424841 -1.941387 -9.326433 1.169300 -0.419380 0.865150 0.785840 -3.058121 -4.549918 -8.954191 13.368004 -5.980068 43.869737 -1.592757 -2.282395 3.850716 1.853273 -6.137060 -13.686857 -15.591976 5.597230 37.428284 -1.203410 0.894110 -20.620750 -5.211686 -7.345180 6.882119 -36.179638 -5.184678 -9.331499 93.733518 -65.124637 -73.200362 -3.671018 1.108143 0.916120 0.191160 0.389730 0.452350 2.055218 11.965789 8.309126 56.212815 1.990008 -22.082413 -89.167544 57.794369 -57.788969 1.574034 0.145768 -0.196940 0.413880 0.389720 0.316590 
-1.317690 17.143720 -4.246840 -3.279217 -20.180973 -8.087989 -15.511761 13.098483 3.909327 -11.679288 -1.043873 5.260405 -14.791397 15.317140 39.384671 1.265768 9.938948 1.582025 -0.235980 -0.397680 -0.546230 18.212112 -8.590761 3.896762 4.922628 9.814440 -26.792034 17.236000 -15.847001 46.985013 -1.680668 -8.342825 1.474664 -0.455470 0.875690 0.780930 -2.960162 -4.774314 -8.869759 12.840186 -5.728794 40.692621 -0.708931 -2.088742 2.903110 2.093138 -6.345045 -14.168951 -16.583379 6.626982 38.569859 -1.436480 1.452130 -17.736150 -3.774030 -5.995940 6.749787 -44.100835 -4.940016 -12.856396 73.680229 -77.431790 -63.392499 -3.379113 0.663380 0.900870 0.204060 0.378450 0.449470 0.365547 10.894619 8.684601 59.450530 1.726220 -25.795607 -74.133079 70.264027 -51.075817 1.124962 0.982695 -0.190660 0.399490 0.398390 0.321070 
-1.345850 17.361830 -4.095600 -3.569901 -20.700044 -6.114907 -15.513513 13.405395 3.786900 -10.197000 -1.389754 2.789697 -11.625255 14.325093 41.665189 1.166627 9.838092 1.593895 -0.238090 -0.428040 -0.539580 18.162933 -8.728682 3.798834 6.055660 9.150344 -25.324305 14.674526 -13.746476 44.031993 -1.463807 -7.433398 1.749136 -0.470300 0.883260 0.788650 -2.828439 -5.029190 -8.731096 12.298650 -5.228101 37.707402 0.007049 -1.521253 1.973630 2.539599 -7.058303 -14.233796 -18.289670 8.026766 38.282182 -1.251150 2.053580 -17.638120 -4.416698 -3.962777 6.754670 -51.013494 -5.459800 -12.829604 39.079263 -79.681214 -38.929392 -3.466904 2.361910 0.930320 0.198050 0.375850 0.445200 0.371739 9.694719 8.557046 60.411229 1.716589 -26.356272 -41.316434 75.830821 -32.280748 1.453397 -0.357709 -0.202740 0.401080 0.412520 0.307990 
-1.395940 17.556490 -3.957830 -2.770881 -19.986263 -4.432992 -15.571232 13.727167 3.725005 -8.491216 -2.159264 -0.183670 -9.233197 13.932912 45.182538 1.120563 10.083645 1.498129 -0.249260 -0.490690 -0.510270 18.053633 -8.838483 3.661296 6.272670 8.221126 -24.552981 12.073954 -11.777407 40.960058 -1.241032 -6.531347 2.023881 -0.495580 0.881190 0.789230 -2.521390 -5.397460 -8.676007 9.545012 -3.951191 34.129633 2.066677 -0.756556 1.310349 2.855213 -7.175857 -14.310591 -18.712865 8.251981 38.515231 -1.677720 2.273280 -17.486820 -4.563074 -2.673518 6.753940 -57.823431 -5.924933 -11.407246 9.728154 -74.974361 -15.296969 -3.539709 2.921632 0.986630 0.188570 0.370100 0.428990 0.166497 9.113211 8.733498 61.976346 1.430414 -23.865347 -15.058052 73.017764 -14.144942 1.702366 -1.040081 -0.240420 0.401820 0.427840 0.270390 
